<svg width="36" height="35" viewBox="0 0 36 35" fill="none" xmlns="http://www.w3.org/2000/svg">
<g id="Frame 127">
<g id="Group">
<path id="Vector" d="M0.765568 26.9471L11.7843 15.8211C11.7843 15.8211 17.5142 11.1472 23.4661 15.3758C23.4661 15.3758 27.105 18.4898 27.765 19.1592C27.765 19.1592 24.2941 18.823 21.4951 21.5825L8.25641 34.0685C8.25641 34.0685 5.55947 36.5555 2.19354 33.4021C2.19654 33.4021 -1.57438 29.6612 0.765568 26.9471Z" fill="#FFCC00"/>
<path id="Vector_2" d="M19.7191 26.1716C19.7191 26.1716 25.494 18.7048 29.7479 20.9978L34.9828 26.7289C34.9828 26.7289 36.2158 28.0496 35.9668 30.2397C35.7868 31.8451 34.7188 33.6505 31.1249 34.8197C31.1249 34.8197 28.95 35.6012 27.324 33.908L19.7191 26.1716Z" fill="#0038FF"/>
<path id="Vector_3" d="M18.0663 12.0196C21.3534 12.0196 24.0181 9.32889 24.0181 6.00978C24.0181 2.69067 21.3534 0 18.0663 0C14.7791 0 12.1144 2.69067 12.1144 6.00978C12.1144 9.32889 14.7791 12.0196 18.0663 12.0196Z" fill="#0038FF"/>
<path id="Vector_4" opacity="0.26" d="M11.7844 15.8211C11.7844 15.8211 17.5143 11.1472 23.4661 15.3758C23.4661 15.3758 27.1051 18.4898 27.765 19.1592C27.765 19.1592 24.2941 18.823 21.4952 21.5825L17.2563 25.5809L6.75049 20.907L11.7844 15.8211Z" fill="#080806"/>
</g>
</g>
</svg>
