<svg width="21" height="21" viewBox="0 0 21 21" fill="none" xmlns="http://www.w3.org/2000/svg">
<g id="Other-Pay-Method">
<g id="Group 3019">
<path id="Vector" d="M20.369 10.728C20.3698 10.0466 20.3118 9.36638 20.1956 8.69481H10.6998V12.546H16.1385C16.0273 13.1611 15.7917 13.7474 15.4461 14.2697C15.1005 14.7919 14.6519 15.2393 14.1275 15.5847V18.0846H17.3734C19.274 16.3444 20.369 13.7709 20.369 10.728Z" fill="#4285F4"/>
<path id="Vector_2" d="M10.6998 20.5C13.4171 20.5 15.705 19.6139 17.3734 18.0862L14.1275 15.5864C13.2241 16.1947 12.0605 16.5419 10.6998 16.5419C8.0734 16.5419 5.8442 14.7836 5.04706 12.4143H1.70325V14.9906C2.54132 16.6467 3.82641 18.0389 5.41506 19.0118C7.0037 19.9847 8.83336 20.4999 10.6998 20.5Z" fill="#34A853"/>
<path id="Vector_3" d="M5.04701 12.414C4.62559 11.1724 4.62559 9.82792 5.04701 8.58638V6.01012H1.7032C0.998184 7.40332 0.631012 8.94094 0.631012 10.5002C0.631012 12.0594 0.998184 13.597 1.7032 14.9902L5.04701 12.414Z" fill="#FBBC04"/>
<path id="Vector_4" d="M10.6998 4.45879C12.1357 4.43549 13.5233 4.97429 14.5624 5.95872L17.4363 3.10469C15.614 1.40488 13.1998 0.471659 10.6998 0.500656C8.83336 0.500741 7.0037 1.01598 5.41506 1.98886C3.82641 2.96174 2.54132 4.35397 1.70325 6.0101L5.04706 8.58636C5.8442 6.21704 8.0734 4.45879 10.6998 4.45879Z" fill="#EA4335"/>
</g>
</g>
</svg>
